PathFileType	4	(X/Y/Z)	TVC_32_BWA_07_walk_RCNL2025.trc
DataRate	CameraRate	NumFrames	NumMarkers	Units	OrigDataRate	OrigDataStartFrame	OrigNumFrames
100	100	12	27	mm	100	69	272
Frame#	Time	R_Shoulder			L_Shoulder			C7			J_Notch			R_Elbow			L_Elbow			R_Wrist			L_Wrist			R_Asis			L_Asis			R_Psis			L_Psis			Sacral			Thoracic			Sternum			R_Thigh_Lateral			R_Knee_Lateral			R_Shank_Lateral			R_Ankle_Lateral			R_Heel			R_Toe			L_Thigh_Lateral			L_Knee_Lateral			L_Shank_Lateral			L_Ankle_Lateral			L_Heel			L_Toe		
		X1	Y1	Z1	X2	Y2	Z2	X3	Y3	Z3	X4	Y4	Z4	X5	Y5	Z5	X6	Y6	Z6	X7	Y7	Z7	X8	Y8	Z8	X9	Y9	Z9	X10	Y10	Z10	X11	Y11	Z11	X12	Y12	Z12	X13	Y13	Z13	X14	Y14	Z14	X15	Y15	Z15	X16	Y16	Z16	X17	Y17	Z17	X18	Y18	Z18	X19	Y19	Z19	X20	Y20	Z20	X21	Y21	Z21	X22	Y22	Z22	X23	Y23	Z23	X24	Y24	Z24	X25	Y25	Z25	X26	Y26	Z26	X27	Y27	Z27
69	0.68000000	-337.853149	1481.861206	-222.974365	-377.268494	1467.239990	-597.479370	-400.439545	1533.757324	-406.404633	-249.294601	1423.327515	-413.080933	-405.788818	1141.134644	-98.535988	-383.396118	1148.235962	-726.952820	-370.609909	871.084808	-146.739281	-215.307610	935.453491	-703.564392	-324.224396	1010.310913	-277.037201	-369.635681	1038.799438	-554.710327	-524.082092	1046.373657	-331.759033	-539.699524	1049.368408	-433.736572	-531.890808	1047.871033	-382.747803	-494.219025	1275.892212	-382.753510	-234.479370	1277.795532	-422.734467	-397.134369	633.373596	-224.613068	-343.077423	504.255066	-286.431946	-376.002686	295.555389	-233.996277	-359.731476	78.375504	-313.542236	-416.710938	52.130016	-375.111145	-212.354279	41.986885	-333.218018	-409.920288	707.166504	-668.988892	-396.301605	527.622009	-642.560059	-534.317993	421.554688	-677.684204	-686.257019	198.051041	-592.181519	-730.838928	228.524597	-527.274597	-603.569397	77.279915	-593.626770
70	0.69000000	-330.022034	1481.906128	-222.154068	-371.566803	1467.304321	-596.511353	-393.465424	1534.027710	-405.182526	-242.429413	1423.500488	-412.670410	-390.710541	1140.392822	-96.186394	-383.989105	1148.118042	-725.431824	-350.514236	871.073944	-144.207783	-219.970863	931.982697	-704.759064	-317.615753	1010.537415	-275.167450	-362.597809	1038.851685	-553.163330	-517.502136	1046.656006	-330.504578	-532.923157	1049.479004	-432.575012	-525.212646	1048.067505	-381.539795	-487.323364	1276.207764	-381.315887	-227.745071	1277.945435	-422.057068	-392.911285	633.730164	-223.459030	-340.637329	504.100403	-286.057434	-374.497528	295.492737	-233.718384	-359.551666	78.323959	-313.601898	-416.756195	52.143421	-375.100281	-212.293365	41.966473	-333.328400	-397.883453	708.621765	-669.171509	-380.710205	529.299866	-643.529663	-517.593262	421.872009	-678.793335	-665.594604	195.586929	-594.187866	-710.654236	224.596420	-529.057983	-580.289978	76.878235	-596.985168
71	0.70000000	-322.299286	1481.881592	-221.436920	-365.892822	1467.338135	-595.626465	-386.557129	1534.230957	-404.059387	-235.637619	1423.609985	-412.328705	-375.550293	1139.721313	-94.023788	-384.717743	1148.025635	-723.806763	-330.298309	871.208038	-141.754078	-224.946602	928.529358	-706.026703	-311.098083	1010.773010	-273.388214	-355.598358	1038.932617	-551.691162	-510.997559	1046.898926	-329.376190	-526.198547	1049.569214	-431.529968	-518.598053	1048.234070	-380.453079	-480.504395	1276.472046	-380.019440	-221.080460	1278.022705	-421.446136	-388.961273	634.050232	-222.448792	-338.292755	503.951721	-285.690674	-373.086670	295.437622	-233.471085	-359.423279	78.277367	-313.647919	-416.822937	52.153072	-375.079590	-212.266098	41.967983	-333.405060	-386.191284	710.050659	-669.051880	-365.378326	531.057312	-644.079224	-500.437958	421.698700	-679.899719	-643.345703	191.700058	-596.696167	-689.189758	219.022873	-531.501221	-554.832214	75.605843	-600.471863
72	0.71000000	-314.668701	1481.799683	-220.819580	-360.236664	1467.349731	-594.818604	-379.708069	1534.374756	-403.030731	-228.912964	1423.661865	-412.052673	-360.339294	1139.144409	-92.055046	-385.535797	1147.974243	-722.078064	-309.996674	871.514069	-139.387115	-230.209312	925.104523	-707.319183	-304.655640	1011.018982	-271.727020	-348.642975	1039.055298	-550.305603	-504.554474	1047.108887	-328.372833	-519.520569	1049.642334	-430.598236	-512.037521	1048.375610	-379.485535	-473.757294	1276.690674	-378.858337	-214.481033	1278.034668	-420.899597	-385.307251	634.341248	-221.603317	-336.029175	503.810577	-285.335205	-371.768799	295.396027	-233.266693	-359.339142	78.234634	-313.690582	-416.907074	52.168545	-375.055206	-212.274826	41.985920	-333.448761	-374.793854	711.403137	-668.624939	-350.273621	532.857910	-644.200928	-482.795074	421.039551	-680.994751	-619.589661	186.587509	-599.646606	-666.475281	212.020523	-534.530151	-527.390686	73.637848	-604.059631
73	0.72000000	-307.115082	1481.669922	-220.298340	-354.591003	1467.344238	-594.082336	-372.912903	1534.464722	-402.092133	-222.250107	1423.660156	-411.839447	-345.110870	1138.680786	-90.282890	-386.396942	1147.974976	-720.252258	-289.643448	872.014740	-137.116249	-235.728104	921.720856	-708.587616	-298.273499	1011.270325	-270.206238	-341.734070	1039.222168	-549.018494	-498.159607	1047.287231	-327.494598	-512.883911	1049.695801	-429.778229	-505.521759	1048.491516	-378.636414	-467.077789	1276.866577	-377.826691	-207.942795	1277.986816	-420.415619	-381.910980	634.610229	-220.912125	-333.822052	503.677795	-284.995636	-370.532532	295.372833	-233.108978	-359.289490	78.194763	-313.737518	-417.000610	52.196751	-375.034973	-212.318741	42.014065	-333.460999	-363.635956	712.637085	-667.899292	-335.358856	534.666992	-643.899658	-464.636566	419.931915	-682.057922	-594.433228	180.500153	-602.957947	-642.558533	203.854797	-538.042480	-498.197876	71.195648	-607.719482
74	0.73000000	-299.625061	1481.498047	-219.869247	-348.950836	1467.322998	-593.413086	-366.167389	1534.504272	-401.239319	-215.644547	1423.607178	-411.686340	-329.899139	1138.342651	-88.706413	-387.255432	1148.034302	-718.340759	-269.272369	872.727936	-134.951107	-241.466759	918.391968	-709.783783	-291.938324	1011.517212	-268.841614	-334.870514	1039.425171	-547.840820	-491.800568	1047.431396	-326.742645	-506.282959	1049.722900	-429.069916	-499.041763	1048.577148	-377.906281	-460.461975	1277.000000	-376.918732	-201.462143	1277.883179	-419.992706	-378.689606	634.861206	-220.355576	-331.638794	503.552704	-284.677490	-369.356171	295.370575	-232.996231	-359.262482	78.157867	-313.792542	-417.090240	52.240986	-375.029541	-212.393951	42.044895	-333.444519	-352.662537	713.721436	-666.897095	-320.596588	536.454651	-643.193481	-445.968079	418.443115	-683.058960	-568.005432	173.722397	-606.532166	-617.505127	194.822144	-541.916382	-467.512146	68.524879	-611.413391
75	0.74000000	-292.187378	1481.286621	-219.528030	-343.313324	1467.284424	-592.807190	-359.468323	1534.494873	-400.468292	-209.092468	1423.503174	-411.591217	-314.737671	1138.136475	-87.321686	-388.067139	1148.154053	-716.359436	-248.916649	873.666260	-132.901474	-247.383911	915.131927	-710.861298	-285.638733	1011.747070	-267.641327	-328.047974	1039.647827	-546.781616	-485.466339	1047.534668	-326.118866	-499.711761	1049.712524	-428.474609	-492.589050	1048.623596	-377.296738	-453.906219	1277.088867	-376.129120	-195.035645	1277.726196	-419.629761	-375.542480	635.096008	-219.914352	-329.441132	503.432465	-284.387421	-368.208313	295.388794	-232.923294	-359.244537	78.125969	-313.855408	-417.158142	52.301884	-375.051361	-212.493515	42.070267	-333.404022	-341.821747	714.637817	-665.653992	-305.952820	538.196716	-642.113586	-426.828339	416.663086	-683.962097	-540.452332	166.550674	-610.259155	-591.398254	185.231674	-546.018982	-435.605713	65.873344	-615.088379
76	0.75000000	-284.793182	1481.035645	-219.270325	-337.677429	1467.224243	-592.261780	-352.813141	1534.435669	-399.775421	-202.590500	1423.347534	-411.552307	-299.658356	1138.062500	-86.122391	-388.790222	1148.332153	-714.327209	-228.608826	874.836792	-130.977100	-253.433525	911.954865	-711.777008	-279.365753	1011.946167	-266.605835	-321.259644	1039.867310	-545.847351	-479.147552	1047.588135	-325.625336	-493.164093	1049.651245	-427.994659	-486.155823	1048.619690	-376.809998	-447.406921	1277.129272	-375.453247	-188.659882	1277.516846	-419.326263	-372.379395	635.316528	-219.565094	-327.187805	503.312012	-284.133118	-367.050232	295.424530	-232.883438	-359.221313	78.103218	-313.923218	-417.184998	52.378819	-375.113098	-212.607208	42.082169	-333.346649	-331.065338	715.380554	-664.217529	-291.400116	539.875732	-640.703003	-407.283569	414.694153	-684.730896	-511.931122	159.272858	-614.021973	-564.337097	175.387482	-550.213318	-402.752563	63.470699	-618.673523
77	0.76000000	-277.436066	1480.742065	-219.091705	-332.043304	1467.136353	-591.775024	-346.199799	1534.324463	-399.157471	-196.135529	1423.137939	-411.568481	-284.690399	1138.116089	-85.100525	-389.385956	1148.563110	-712.264709	-208.380684	876.241455	-129.187542	-259.565514	908.874512	-712.492126	-273.112518	1012.101868	-265.728638	-314.496368	1040.056519	-545.041443	-472.836731	1047.580811	-325.263580	-486.633270	1049.523193	-427.632874	-479.735001	1048.552002	-376.448227	-440.960449	1277.115479	-374.887177	-182.331345	1277.254517	-419.082275	-369.134583	635.526306	-219.277496	-324.837952	503.184265	-283.922791	-365.839661	295.474548	-232.870193	-359.179138	78.095078	-313.992706	-417.155182	52.471218	-375.224731	-212.721497	42.072983	-333.282654	-320.348053	715.955750	-662.645752	-276.919708	541.480469	-639.015015	-387.419281	412.639252	-685.333191	-482.605042	152.150452	-617.701416	-536.434143	165.573166	-554.364136	-369.218018	61.511887	-622.080139
78	0.77000000	-270.111664	1480.401001	-218.987900	-326.412109	1467.013428	-591.345581	-339.626648	1534.157593	-398.611694	-189.724472	1422.871216	-411.639160	-269.859619	1138.288330	-84.246887	-389.819550	1148.838501	-710.193481	-188.263069	877.877136	-127.541981	-265.726532	905.904083	-712.973267	-266.873840	1012.203735	-264.997314	-307.746979	1040.187500	-544.364441	-466.528381	1047.500610	-325.033997	-480.112122	1049.311890	-427.391907	-473.320251	1048.406250	-376.212952	-434.562866	1277.041016	-374.427643	-176.046295	1276.937500	-418.898285	-365.755402	635.726990	-219.021225	-322.354401	503.040955	-283.764496	-364.536285	295.537933	-232.878998	-359.106415	78.106613	-314.063446	-417.063812	52.578926	-375.389618	-212.820312	42.035919	-333.224518	-309.626770	716.379639	-661.004089	-262.502502	543.005249	-637.110718	-367.330200	410.591461	-685.744263	-452.638123	145.405090	-621.180481	-507.811401	156.039230	-558.341797	-335.249817	60.146450	-625.205933
79	0.78000000	-262.817474	1480.005981	-218.954956	-320.785278	1466.847168	-590.972900	-333.092041	1533.930176	-398.135864	-183.354141	1422.543701	-411.764465	-255.187988	1138.567017	-83.551613	-390.060791	1149.147949	-708.134949	-168.285713	879.736176	-126.049034	-271.861000	903.055756	-713.193176	-260.645660	1012.244324	-264.395081	-300.998749	1040.233154	-543.814514	-460.218689	1047.335938	-324.935364	-473.592926	1049.000732	-427.273743	-466.905807	1048.168335	-376.104553	-428.209991	1276.898315	-374.071960	-169.800644	1276.563110	-418.775360	-362.180450	635.909180	-218.776566	-319.706390	502.873779	-283.665588	-363.107727	295.616028	-232.907822	-358.994263	78.141228	-314.140259	-416.920837	52.701504	-375.602661	-212.887619	41.966537	-333.184418	-298.860077	716.676636	-659.361572	-248.149200	544.448608	-635.055054	-347.110535	408.625946	-685.949524	-422.191284	139.209915	-624.347839	-478.596313	146.994263	-562.024963	-301.071838	59.474155	-627.942566
80	0.79000000	-255.552414	1479.549561	-218.989365	-315.164154	1466.628906	-590.657104	-326.594269	1533.636475	-397.728241	-177.021057	1422.151245	-411.945129	-240.693405	1138.937256	-83.004509	-390.084778	1149.479736	-706.109375	-148.477074	881.807129	-124.716709	-277.912338	900.340637	-713.130981	-254.424194	1012.219788	-263.902649	-294.238007	1040.169678	-543.387390	-453.905121	1047.075073	-324.964355	-467.067566	1048.573364	-427.279022	-460.486343	1047.824219	-376.121689	-421.897156	1276.679810	-373.817841	-163.589828	1276.127808	-418.714935	-358.333344	636.050415	-218.539490	-316.871155	502.674438	-283.632263	-361.533051	295.709259	-232.957108	-358.836426	78.200249	-314.234131	-416.744598	52.837395	-375.854523	-212.911865	41.865452	-333.170166	-288.009766	716.876465	-657.786377	-233.869324	545.811951	-632.913147	-326.846954	406.795624	-685.943848	-391.419342	133.686188	-627.101990	-448.917969	138.600082	-565.302795	-266.880707	59.546246	-630.185791
